<mxfile host="Electron" agent="Mozilla/5.0 (Windows NT 10.0; Win64; x64) AppleWebKit/537.36 (KHTML, like Gecko) draw.io/24.7.8 Chrome/128.0.6613.36 Electron/32.0.1 Safari/537.36" version="24.7.8">
  <diagram id="C5RBs43oDa-KdzZeNtuy" name="Page-1">
    <mxGraphModel dx="3129" dy="1347" grid="1" gridSize="10" guides="1" tooltips="1" connect="1" arrows="1" fold="1" page="1" pageScale="1" pageWidth="827" pageHeight="1169" background="#ffffff" math="0" shadow="0">
      <root>
        <mxCell id="WIyWlLk6GJQsqaUBKTNV-0" />
        <mxCell id="WIyWlLk6GJQsqaUBKTNV-1" parent="WIyWlLk6GJQsqaUBKTNV-0" />
        <mxCell id="2dFmBHsL3zyiolPfMNF0-12" value="" style="edgeStyle=orthogonalEdgeStyle;rounded=0;orthogonalLoop=1;jettySize=auto;html=1;labelBackgroundColor=none;strokeColor=#E07A5F;fontColor=default;" parent="WIyWlLk6GJQsqaUBKTNV-1" source="2dFmBHsL3zyiolPfMNF0-0" target="2dFmBHsL3zyiolPfMNF0-11" edge="1">
          <mxGeometry relative="1" as="geometry" />
        </mxCell>
        <mxCell id="2dFmBHsL3zyiolPfMNF0-0" value="START" style="ellipse;whiteSpace=wrap;html=1;labelBackgroundColor=none;fillColor=#F2CC8F;strokeColor=#E07A5F;fontColor=#393C56;" parent="WIyWlLk6GJQsqaUBKTNV-1" vertex="1">
          <mxGeometry x="370" y="20" width="120" height="80" as="geometry" />
        </mxCell>
        <mxCell id="2dFmBHsL3zyiolPfMNF0-18" value="" style="edgeStyle=orthogonalEdgeStyle;rounded=0;orthogonalLoop=1;jettySize=auto;html=1;labelBackgroundColor=none;strokeColor=#E07A5F;fontColor=default;" parent="WIyWlLk6GJQsqaUBKTNV-1" source="2dFmBHsL3zyiolPfMNF0-11" edge="1">
          <mxGeometry relative="1" as="geometry">
            <mxPoint x="430" y="320" as="targetPoint" />
          </mxGeometry>
        </mxCell>
        <mxCell id="2dFmBHsL3zyiolPfMNF0-19" value="" style="edgeStyle=orthogonalEdgeStyle;rounded=0;orthogonalLoop=1;jettySize=auto;html=1;labelBackgroundColor=none;strokeColor=#E07A5F;fontColor=default;" parent="WIyWlLk6GJQsqaUBKTNV-1" source="2dFmBHsL3zyiolPfMNF0-11" edge="1">
          <mxGeometry relative="1" as="geometry">
            <mxPoint x="430" y="320" as="targetPoint" />
          </mxGeometry>
        </mxCell>
        <mxCell id="2dFmBHsL3zyiolPfMNF0-23" style="edgeStyle=orthogonalEdgeStyle;rounded=0;orthogonalLoop=1;jettySize=auto;html=1;entryX=0.5;entryY=0;entryDx=0;entryDy=0;labelBackgroundColor=none;strokeColor=#E07A5F;fontColor=default;" parent="WIyWlLk6GJQsqaUBKTNV-1" source="2dFmBHsL3zyiolPfMNF0-11" target="2dFmBHsL3zyiolPfMNF0-21" edge="1">
          <mxGeometry relative="1" as="geometry" />
        </mxCell>
        <mxCell id="2dFmBHsL3zyiolPfMNF0-26" style="edgeStyle=orthogonalEdgeStyle;rounded=0;orthogonalLoop=1;jettySize=auto;html=1;entryX=0.5;entryY=0;entryDx=0;entryDy=0;labelBackgroundColor=none;strokeColor=#E07A5F;fontColor=default;" parent="WIyWlLk6GJQsqaUBKTNV-1" source="2dFmBHsL3zyiolPfMNF0-11" target="2dFmBHsL3zyiolPfMNF0-25" edge="1">
          <mxGeometry relative="1" as="geometry" />
        </mxCell>
        <mxCell id="2dFmBHsL3zyiolPfMNF0-11" value="pilih option" style="rounded=1;whiteSpace=wrap;html=1;labelBackgroundColor=none;fillColor=#F2CC8F;strokeColor=#E07A5F;fontColor=#393C56;" parent="WIyWlLk6GJQsqaUBKTNV-1" vertex="1">
          <mxGeometry x="370" y="190" width="120" height="60" as="geometry" />
        </mxCell>
        <mxCell id="2dFmBHsL3zyiolPfMNF0-32" style="edgeStyle=orthogonalEdgeStyle;rounded=0;orthogonalLoop=1;jettySize=auto;html=1;labelBackgroundColor=none;strokeColor=#E07A5F;fontColor=default;" parent="WIyWlLk6GJQsqaUBKTNV-1" source="2dFmBHsL3zyiolPfMNF0-20" target="2dFmBHsL3zyiolPfMNF0-25" edge="1">
          <mxGeometry relative="1" as="geometry" />
        </mxCell>
        <mxCell id="2dFmBHsL3zyiolPfMNF0-35" value="" style="edgeStyle=orthogonalEdgeStyle;rounded=0;orthogonalLoop=1;jettySize=auto;html=1;labelBackgroundColor=none;strokeColor=#E07A5F;fontColor=default;" parent="WIyWlLk6GJQsqaUBKTNV-1" source="2dFmBHsL3zyiolPfMNF0-20" target="2dFmBHsL3zyiolPfMNF0-34" edge="1">
          <mxGeometry relative="1" as="geometry" />
        </mxCell>
        <mxCell id="2dFmBHsL3zyiolPfMNF0-20" value="registrasi akun" style="rhombus;whiteSpace=wrap;html=1;labelBackgroundColor=none;fillColor=#F2CC8F;strokeColor=#E07A5F;fontColor=#393C56;" parent="WIyWlLk6GJQsqaUBKTNV-1" vertex="1">
          <mxGeometry x="390" y="320" width="80" height="80" as="geometry" />
        </mxCell>
        <mxCell id="2dFmBHsL3zyiolPfMNF0-29" style="edgeStyle=orthogonalEdgeStyle;rounded=0;orthogonalLoop=1;jettySize=auto;html=1;labelBackgroundColor=none;strokeColor=#E07A5F;fontColor=default;" parent="WIyWlLk6GJQsqaUBKTNV-1" source="2dFmBHsL3zyiolPfMNF0-21" target="2dFmBHsL3zyiolPfMNF0-20" edge="1">
          <mxGeometry relative="1" as="geometry" />
        </mxCell>
        <mxCell id="2dFmBHsL3zyiolPfMNF0-43" value="" style="edgeStyle=orthogonalEdgeStyle;rounded=0;orthogonalLoop=1;jettySize=auto;html=1;labelBackgroundColor=none;strokeColor=#E07A5F;fontColor=default;" parent="WIyWlLk6GJQsqaUBKTNV-1" source="2dFmBHsL3zyiolPfMNF0-21" target="2dFmBHsL3zyiolPfMNF0-42" edge="1">
          <mxGeometry relative="1" as="geometry" />
        </mxCell>
        <mxCell id="2dFmBHsL3zyiolPfMNF0-21" value="login" style="rhombus;whiteSpace=wrap;html=1;labelBackgroundColor=none;fillColor=#F2CC8F;strokeColor=#E07A5F;fontColor=#393C56;" parent="WIyWlLk6GJQsqaUBKTNV-1" vertex="1">
          <mxGeometry x="-80" y="320" width="80" height="80" as="geometry" />
        </mxCell>
        <mxCell id="2dFmBHsL3zyiolPfMNF0-261" style="edgeStyle=orthogonalEdgeStyle;rounded=0;orthogonalLoop=1;jettySize=auto;html=1;labelBackgroundColor=none;strokeColor=#E07A5F;fontColor=default;" parent="WIyWlLk6GJQsqaUBKTNV-1" source="2dFmBHsL3zyiolPfMNF0-25" target="2dFmBHsL3zyiolPfMNF0-262" edge="1">
          <mxGeometry relative="1" as="geometry">
            <mxPoint x="660" y="610" as="targetPoint" />
          </mxGeometry>
        </mxCell>
        <mxCell id="2dFmBHsL3zyiolPfMNF0-25" value="exit" style="rhombus;whiteSpace=wrap;html=1;labelBackgroundColor=none;fillColor=#F2CC8F;strokeColor=#E07A5F;fontColor=#393C56;" parent="WIyWlLk6GJQsqaUBKTNV-1" vertex="1">
          <mxGeometry x="490" y="320" width="80" height="80" as="geometry" />
        </mxCell>
        <mxCell id="2dFmBHsL3zyiolPfMNF0-37" value="" style="edgeStyle=orthogonalEdgeStyle;rounded=0;orthogonalLoop=1;jettySize=auto;html=1;labelBackgroundColor=none;strokeColor=#E07A5F;fontColor=default;" parent="WIyWlLk6GJQsqaUBKTNV-1" source="2dFmBHsL3zyiolPfMNF0-34" target="2dFmBHsL3zyiolPfMNF0-36" edge="1">
          <mxGeometry relative="1" as="geometry" />
        </mxCell>
        <mxCell id="2dFmBHsL3zyiolPfMNF0-34" value="input buat_username" style="shape=parallelogram;perimeter=parallelogramPerimeter;whiteSpace=wrap;html=1;fixedSize=1;labelBackgroundColor=none;fillColor=#F2CC8F;strokeColor=#E07A5F;fontColor=#393C56;" parent="WIyWlLk6GJQsqaUBKTNV-1" vertex="1">
          <mxGeometry x="355" y="490" width="150" height="60" as="geometry" />
        </mxCell>
        <mxCell id="2dFmBHsL3zyiolPfMNF0-39" value="" style="edgeStyle=orthogonalEdgeStyle;rounded=0;orthogonalLoop=1;jettySize=auto;html=1;labelBackgroundColor=none;strokeColor=#E07A5F;fontColor=default;" parent="WIyWlLk6GJQsqaUBKTNV-1" source="2dFmBHsL3zyiolPfMNF0-36" target="2dFmBHsL3zyiolPfMNF0-38" edge="1">
          <mxGeometry relative="1" as="geometry" />
        </mxCell>
        <mxCell id="2dFmBHsL3zyiolPfMNF0-36" value="input buat_password" style="shape=parallelogram;perimeter=parallelogramPerimeter;whiteSpace=wrap;html=1;fixedSize=1;labelBackgroundColor=none;fillColor=#F2CC8F;strokeColor=#E07A5F;fontColor=#393C56;" parent="WIyWlLk6GJQsqaUBKTNV-1" vertex="1">
          <mxGeometry x="360" y="590" width="140" height="60" as="geometry" />
        </mxCell>
        <mxCell id="2dFmBHsL3zyiolPfMNF0-40" style="edgeStyle=orthogonalEdgeStyle;rounded=0;orthogonalLoop=1;jettySize=auto;html=1;entryX=0;entryY=0.5;entryDx=0;entryDy=0;labelBackgroundColor=none;strokeColor=#E07A5F;fontColor=default;" parent="WIyWlLk6GJQsqaUBKTNV-1" source="2dFmBHsL3zyiolPfMNF0-38" edge="1">
          <mxGeometry relative="1" as="geometry">
            <mxPoint x="380.01" y="249.98" as="targetPoint" />
            <mxPoint x="390.0037106918239" y="759.9988679245284" as="sourcePoint" />
            <Array as="points">
              <mxPoint x="280" y="730" />
              <mxPoint x="280" y="320" />
              <mxPoint x="380" y="320" />
            </Array>
          </mxGeometry>
        </mxCell>
        <mxCell id="2dFmBHsL3zyiolPfMNF0-41" value="kembali" style="edgeLabel;html=1;align=center;verticalAlign=middle;resizable=0;points=[];labelBackgroundColor=none;fontColor=#393C56;" parent="2dFmBHsL3zyiolPfMNF0-40" vertex="1" connectable="0">
          <mxGeometry x="0.575" y="-1" relative="1" as="geometry">
            <mxPoint x="1" as="offset" />
          </mxGeometry>
        </mxCell>
        <mxCell id="2dFmBHsL3zyiolPfMNF0-38" value="input role&lt;div&gt;(admin/reguler)&lt;/div&gt;" style="shape=parallelogram;perimeter=parallelogramPerimeter;whiteSpace=wrap;html=1;fixedSize=1;labelBackgroundColor=none;fillColor=#F2CC8F;strokeColor=#E07A5F;fontColor=#393C56;" parent="WIyWlLk6GJQsqaUBKTNV-1" vertex="1">
          <mxGeometry x="370" y="700" width="120" height="60" as="geometry" />
        </mxCell>
        <mxCell id="2dFmBHsL3zyiolPfMNF0-45" value="" style="edgeStyle=orthogonalEdgeStyle;rounded=0;orthogonalLoop=1;jettySize=auto;html=1;labelBackgroundColor=none;strokeColor=#E07A5F;fontColor=default;" parent="WIyWlLk6GJQsqaUBKTNV-1" source="2dFmBHsL3zyiolPfMNF0-42" target="2dFmBHsL3zyiolPfMNF0-44" edge="1">
          <mxGeometry relative="1" as="geometry" />
        </mxCell>
        <mxCell id="2dFmBHsL3zyiolPfMNF0-42" value="input username" style="shape=parallelogram;perimeter=parallelogramPerimeter;whiteSpace=wrap;html=1;fixedSize=1;labelBackgroundColor=none;fillColor=#F2CC8F;strokeColor=#E07A5F;fontColor=#393C56;" parent="WIyWlLk6GJQsqaUBKTNV-1" vertex="1">
          <mxGeometry x="-100" y="490" width="120" height="60" as="geometry" />
        </mxCell>
        <mxCell id="2dFmBHsL3zyiolPfMNF0-47" value="" style="edgeStyle=orthogonalEdgeStyle;rounded=0;orthogonalLoop=1;jettySize=auto;html=1;labelBackgroundColor=none;strokeColor=#E07A5F;fontColor=default;" parent="WIyWlLk6GJQsqaUBKTNV-1" source="2dFmBHsL3zyiolPfMNF0-44" target="2dFmBHsL3zyiolPfMNF0-46" edge="1">
          <mxGeometry relative="1" as="geometry" />
        </mxCell>
        <mxCell id="2dFmBHsL3zyiolPfMNF0-44" value="input password" style="shape=parallelogram;perimeter=parallelogramPerimeter;whiteSpace=wrap;html=1;fixedSize=1;labelBackgroundColor=none;fillColor=#F2CC8F;strokeColor=#E07A5F;fontColor=#393C56;" parent="WIyWlLk6GJQsqaUBKTNV-1" vertex="1">
          <mxGeometry x="-100" y="580" width="120" height="60" as="geometry" />
        </mxCell>
        <mxCell id="2dFmBHsL3zyiolPfMNF0-48" style="edgeStyle=orthogonalEdgeStyle;rounded=0;orthogonalLoop=1;jettySize=auto;html=1;entryX=0.925;entryY=0.595;entryDx=0;entryDy=0;entryPerimeter=0;labelBackgroundColor=none;strokeColor=#E07A5F;fontColor=default;" parent="WIyWlLk6GJQsqaUBKTNV-1" source="2dFmBHsL3zyiolPfMNF0-46" target="2dFmBHsL3zyiolPfMNF0-21" edge="1">
          <mxGeometry relative="1" as="geometry">
            <mxPoint x="150" y="370" as="targetPoint" />
            <Array as="points">
              <mxPoint x="150" y="785" />
              <mxPoint x="150" y="368" />
            </Array>
          </mxGeometry>
        </mxCell>
        <mxCell id="2dFmBHsL3zyiolPfMNF0-50" value="salah" style="edgeLabel;html=1;align=center;verticalAlign=middle;resizable=0;points=[];labelBackgroundColor=none;fontColor=#393C56;" parent="2dFmBHsL3zyiolPfMNF0-48" vertex="1" connectable="0">
          <mxGeometry x="-0.8768" y="-2" relative="1" as="geometry">
            <mxPoint as="offset" />
          </mxGeometry>
        </mxCell>
        <mxCell id="2dFmBHsL3zyiolPfMNF0-51" style="edgeStyle=orthogonalEdgeStyle;rounded=0;orthogonalLoop=1;jettySize=auto;html=1;exitX=0;exitY=0.5;exitDx=0;exitDy=0;labelBackgroundColor=none;strokeColor=#E07A5F;fontColor=default;" parent="WIyWlLk6GJQsqaUBKTNV-1" source="2dFmBHsL3zyiolPfMNF0-46" target="2dFmBHsL3zyiolPfMNF0-135" edge="1">
          <mxGeometry relative="1" as="geometry">
            <mxPoint x="-210.14285714285688" y="1030" as="targetPoint" />
            <Array as="points">
              <mxPoint x="-210" y="785" />
            </Array>
          </mxGeometry>
        </mxCell>
        <mxCell id="2dFmBHsL3zyiolPfMNF0-52" value="benar" style="edgeLabel;html=1;align=center;verticalAlign=middle;resizable=0;points=[];labelBackgroundColor=none;fontColor=#393C56;" parent="2dFmBHsL3zyiolPfMNF0-51" vertex="1" connectable="0">
          <mxGeometry x="-0.7954" y="2" relative="1" as="geometry">
            <mxPoint as="offset" />
          </mxGeometry>
        </mxCell>
        <mxCell id="2dFmBHsL3zyiolPfMNF0-46" value="username == buat_&lt;span style=&quot;background-color: initial;&quot;&gt;username&lt;/span&gt;&lt;div&gt;&amp;amp;&lt;/div&gt;&lt;div&gt;password == buat_password&lt;br&gt;&lt;div&gt;&lt;br&gt;&lt;/div&gt;&lt;/div&gt;" style="rhombus;whiteSpace=wrap;html=1;labelBackgroundColor=none;fillColor=#F2CC8F;strokeColor=#E07A5F;fontColor=#393C56;" parent="WIyWlLk6GJQsqaUBKTNV-1" vertex="1">
          <mxGeometry x="-155" y="710" width="230" height="150" as="geometry" />
        </mxCell>
        <mxCell id="2dFmBHsL3zyiolPfMNF0-135" value="P1" style="shape=offPageConnector;whiteSpace=wrap;html=1;labelBackgroundColor=none;fillColor=#F2CC8F;strokeColor=#E07A5F;fontColor=#393C56;" parent="WIyWlLk6GJQsqaUBKTNV-1" vertex="1">
          <mxGeometry x="-250" y="1040" width="80" height="80" as="geometry" />
        </mxCell>
        <mxCell id="2dFmBHsL3zyiolPfMNF0-255" style="edgeStyle=orthogonalEdgeStyle;rounded=0;orthogonalLoop=1;jettySize=auto;html=1;labelBackgroundColor=none;strokeColor=#E07A5F;fontColor=default;" parent="WIyWlLk6GJQsqaUBKTNV-1" source="2dFmBHsL3zyiolPfMNF0-137" target="2dFmBHsL3zyiolPfMNF0-197" edge="1">
          <mxGeometry relative="1" as="geometry" />
        </mxCell>
        <mxCell id="2dFmBHsL3zyiolPfMNF0-137" value="P1" style="shape=offPageConnector;whiteSpace=wrap;html=1;labelBackgroundColor=none;fillColor=#F2CC8F;strokeColor=#E07A5F;fontColor=#393C56;" parent="WIyWlLk6GJQsqaUBKTNV-1" vertex="1">
          <mxGeometry x="1290" y="190" width="80" height="80" as="geometry" />
        </mxCell>
        <mxCell id="2dFmBHsL3zyiolPfMNF0-262" value="END" style="ellipse;whiteSpace=wrap;html=1;labelBackgroundColor=none;fillColor=#F2CC8F;strokeColor=#E07A5F;fontColor=#393C56;" parent="WIyWlLk6GJQsqaUBKTNV-1" vertex="1">
          <mxGeometry x="610" y="680" width="120" height="80" as="geometry" />
        </mxCell>
        <mxCell id="6tOE_kxv_wdbd2dH7QsG-6" style="edgeStyle=orthogonalEdgeStyle;rounded=0;orthogonalLoop=1;jettySize=auto;html=1;strokeColor=#E07A5F;fontColor=#393C56;fillColor=#F2CC8F;" edge="1" parent="WIyWlLk6GJQsqaUBKTNV-1" target="2dFmBHsL3zyiolPfMNF0-25">
          <mxGeometry relative="1" as="geometry">
            <mxPoint x="-30" y="1080" as="sourcePoint" />
          </mxGeometry>
        </mxCell>
        <mxCell id="2dFmBHsL3zyiolPfMNF0-194" style="edgeStyle=orthogonalEdgeStyle;rounded=0;orthogonalLoop=1;jettySize=auto;html=1;labelBackgroundColor=none;strokeColor=#E07A5F;fontColor=default;" parent="WIyWlLk6GJQsqaUBKTNV-1" source="2dFmBHsL3zyiolPfMNF0-197" target="2dFmBHsL3zyiolPfMNF0-209" edge="1">
          <mxGeometry relative="1" as="geometry" />
        </mxCell>
        <mxCell id="2dFmBHsL3zyiolPfMNF0-195" style="edgeStyle=orthogonalEdgeStyle;rounded=0;orthogonalLoop=1;jettySize=auto;html=1;labelBackgroundColor=none;strokeColor=#E07A5F;fontColor=default;" parent="WIyWlLk6GJQsqaUBKTNV-1" source="2dFmBHsL3zyiolPfMNF0-197" target="2dFmBHsL3zyiolPfMNF0-211" edge="1">
          <mxGeometry relative="1" as="geometry" />
        </mxCell>
        <mxCell id="2dFmBHsL3zyiolPfMNF0-196" style="edgeStyle=orthogonalEdgeStyle;rounded=0;orthogonalLoop=1;jettySize=auto;html=1;labelBackgroundColor=none;strokeColor=#E07A5F;fontColor=default;" parent="WIyWlLk6GJQsqaUBKTNV-1" source="2dFmBHsL3zyiolPfMNF0-197" target="2dFmBHsL3zyiolPfMNF0-202" edge="1">
          <mxGeometry relative="1" as="geometry">
            <Array as="points">
              <mxPoint x="1227" y="380" />
            </Array>
          </mxGeometry>
        </mxCell>
        <mxCell id="2dFmBHsL3zyiolPfMNF0-197" value="pilih opsi" style="rounded=1;whiteSpace=wrap;html=1;labelBackgroundColor=none;fillColor=#F2CC8F;strokeColor=#E07A5F;fontColor=#393C56;" parent="WIyWlLk6GJQsqaUBKTNV-1" vertex="1">
          <mxGeometry x="1270" y="350" width="120" height="60" as="geometry" />
        </mxCell>
        <mxCell id="2dFmBHsL3zyiolPfMNF0-198" style="edgeStyle=orthogonalEdgeStyle;rounded=0;orthogonalLoop=1;jettySize=auto;html=1;entryX=0.474;entryY=0.098;entryDx=0;entryDy=0;entryPerimeter=0;labelBackgroundColor=none;strokeColor=#E07A5F;fontColor=default;" parent="WIyWlLk6GJQsqaUBKTNV-1" edge="1">
          <mxGeometry relative="1" as="geometry">
            <mxPoint x="1331.0585714285714" y="410" as="sourcePoint" />
            <mxPoint x="1328.95" y="517.8399999999999" as="targetPoint" />
            <Array as="points">
              <mxPoint x="1331" y="411" />
              <mxPoint x="1329" y="411" />
              <mxPoint x="1329" y="464" />
              <mxPoint x="1330" y="464" />
              <mxPoint x="1330" y="518" />
            </Array>
          </mxGeometry>
        </mxCell>
        <mxCell id="2dFmBHsL3zyiolPfMNF0-199" style="edgeStyle=orthogonalEdgeStyle;rounded=0;orthogonalLoop=1;jettySize=auto;html=1;entryX=0.522;entryY=0.058;entryDx=0;entryDy=0;entryPerimeter=0;labelBackgroundColor=none;strokeColor=#E07A5F;fontColor=default;" parent="WIyWlLk6GJQsqaUBKTNV-1" source="2dFmBHsL3zyiolPfMNF0-197" target="2dFmBHsL3zyiolPfMNF0-205" edge="1">
          <mxGeometry relative="1" as="geometry">
            <Array as="points">
              <mxPoint x="1115" y="380" />
              <mxPoint x="1115" y="480" />
              <mxPoint x="1117" y="480" />
            </Array>
          </mxGeometry>
        </mxCell>
        <mxCell id="2dFmBHsL3zyiolPfMNF0-200" style="edgeStyle=orthogonalEdgeStyle;rounded=0;orthogonalLoop=1;jettySize=auto;html=1;labelBackgroundColor=none;strokeColor=#E07A5F;fontColor=default;" parent="WIyWlLk6GJQsqaUBKTNV-1" source="2dFmBHsL3zyiolPfMNF0-202" target="2dFmBHsL3zyiolPfMNF0-208" edge="1">
          <mxGeometry relative="1" as="geometry" />
        </mxCell>
        <mxCell id="2dFmBHsL3zyiolPfMNF0-201" style="edgeStyle=orthogonalEdgeStyle;rounded=0;orthogonalLoop=1;jettySize=auto;html=1;labelBackgroundColor=none;strokeColor=#E07A5F;fontColor=default;" parent="WIyWlLk6GJQsqaUBKTNV-1" source="2dFmBHsL3zyiolPfMNF0-202" target="2dFmBHsL3zyiolPfMNF0-221" edge="1">
          <mxGeometry relative="1" as="geometry" />
        </mxCell>
        <mxCell id="2dFmBHsL3zyiolPfMNF0-202" value="deleted&amp;nbsp;&lt;div&gt;character&lt;/div&gt;" style="rhombus;whiteSpace=wrap;html=1;labelBackgroundColor=none;fillColor=#F2CC8F;strokeColor=#E07A5F;fontColor=#393C56;" parent="WIyWlLk6GJQsqaUBKTNV-1" vertex="1">
          <mxGeometry x="1180" y="480" width="95" height="80" as="geometry" />
        </mxCell>
        <mxCell id="2dFmBHsL3zyiolPfMNF0-203" style="edgeStyle=orthogonalEdgeStyle;rounded=0;orthogonalLoop=1;jettySize=auto;html=1;labelBackgroundColor=none;strokeColor=#E07A5F;fontColor=default;" parent="WIyWlLk6GJQsqaUBKTNV-1" source="2dFmBHsL3zyiolPfMNF0-205" target="2dFmBHsL3zyiolPfMNF0-202" edge="1">
          <mxGeometry relative="1" as="geometry" />
        </mxCell>
        <mxCell id="2dFmBHsL3zyiolPfMNF0-204" value="" style="edgeStyle=orthogonalEdgeStyle;rounded=0;orthogonalLoop=1;jettySize=auto;html=1;labelBackgroundColor=none;strokeColor=#E07A5F;fontColor=default;" parent="WIyWlLk6GJQsqaUBKTNV-1" source="2dFmBHsL3zyiolPfMNF0-205" target="2dFmBHsL3zyiolPfMNF0-213" edge="1">
          <mxGeometry relative="1" as="geometry" />
        </mxCell>
        <mxCell id="2dFmBHsL3zyiolPfMNF0-205" value="create character" style="rhombus;whiteSpace=wrap;html=1;labelBackgroundColor=none;fillColor=#F2CC8F;strokeColor=#E07A5F;fontColor=#393C56;" parent="WIyWlLk6GJQsqaUBKTNV-1" vertex="1">
          <mxGeometry x="1075" y="480" width="80" height="80" as="geometry" />
        </mxCell>
        <mxCell id="2dFmBHsL3zyiolPfMNF0-206" style="edgeStyle=orthogonalEdgeStyle;rounded=0;orthogonalLoop=1;jettySize=auto;html=1;labelBackgroundColor=none;strokeColor=#E07A5F;fontColor=default;" parent="WIyWlLk6GJQsqaUBKTNV-1" source="2dFmBHsL3zyiolPfMNF0-208" target="2dFmBHsL3zyiolPfMNF0-211" edge="1">
          <mxGeometry relative="1" as="geometry" />
        </mxCell>
        <mxCell id="2dFmBHsL3zyiolPfMNF0-207" style="edgeStyle=orthogonalEdgeStyle;rounded=0;orthogonalLoop=1;jettySize=auto;html=1;labelBackgroundColor=none;strokeColor=#E07A5F;fontColor=default;" parent="WIyWlLk6GJQsqaUBKTNV-1" source="2dFmBHsL3zyiolPfMNF0-208" target="2dFmBHsL3zyiolPfMNF0-235" edge="1">
          <mxGeometry relative="1" as="geometry" />
        </mxCell>
        <mxCell id="2dFmBHsL3zyiolPfMNF0-208" value="apdate character" style="rhombus;whiteSpace=wrap;html=1;labelBackgroundColor=none;fillColor=#F2CC8F;strokeColor=#E07A5F;fontColor=#393C56;" parent="WIyWlLk6GJQsqaUBKTNV-1" vertex="1">
          <mxGeometry x="1305" y="480" width="80" height="80" as="geometry" />
        </mxCell>
        <mxCell id="6tOE_kxv_wdbd2dH7QsG-3" style="edgeStyle=orthogonalEdgeStyle;rounded=0;orthogonalLoop=1;jettySize=auto;html=1;strokeColor=#E07A5F;fontColor=#393C56;fillColor=#F2CC8F;" edge="1" parent="WIyWlLk6GJQsqaUBKTNV-1" source="2dFmBHsL3zyiolPfMNF0-209">
          <mxGeometry relative="1" as="geometry">
            <mxPoint x="1670" y="290" as="targetPoint" />
          </mxGeometry>
        </mxCell>
        <mxCell id="2dFmBHsL3zyiolPfMNF0-209" value="log out" style="rhombus;whiteSpace=wrap;html=1;labelBackgroundColor=none;fillColor=#F2CC8F;strokeColor=#E07A5F;fontColor=#393C56;" parent="WIyWlLk6GJQsqaUBKTNV-1" vertex="1">
          <mxGeometry x="1505" y="480" width="80" height="80" as="geometry" />
        </mxCell>
        <mxCell id="2dFmBHsL3zyiolPfMNF0-210" style="edgeStyle=orthogonalEdgeStyle;rounded=0;orthogonalLoop=1;jettySize=auto;html=1;labelBackgroundColor=none;strokeColor=#E07A5F;fontColor=default;" parent="WIyWlLk6GJQsqaUBKTNV-1" source="2dFmBHsL3zyiolPfMNF0-211" target="2dFmBHsL3zyiolPfMNF0-209" edge="1">
          <mxGeometry relative="1" as="geometry" />
        </mxCell>
        <mxCell id="2dFmBHsL3zyiolPfMNF0-211" value="read character" style="rhombus;whiteSpace=wrap;html=1;labelBackgroundColor=none;fillColor=#F2CC8F;strokeColor=#E07A5F;fontColor=#393C56;" parent="WIyWlLk6GJQsqaUBKTNV-1" vertex="1">
          <mxGeometry x="1400" y="480" width="80" height="80" as="geometry" />
        </mxCell>
        <mxCell id="2dFmBHsL3zyiolPfMNF0-213" value="input character&lt;div&gt;name&lt;/div&gt;" style="shape=parallelogram;perimeter=parallelogramPerimeter;whiteSpace=wrap;html=1;fixedSize=1;labelBackgroundColor=none;fillColor=#F2CC8F;strokeColor=#E07A5F;fontColor=#393C56;" parent="WIyWlLk6GJQsqaUBKTNV-1" vertex="1">
          <mxGeometry x="970" y="600" width="120" height="60" as="geometry" />
        </mxCell>
        <mxCell id="2dFmBHsL3zyiolPfMNF0-216" style="edgeStyle=orthogonalEdgeStyle;rounded=0;orthogonalLoop=1;jettySize=auto;html=1;labelBackgroundColor=none;strokeColor=#E07A5F;fontColor=default;" parent="WIyWlLk6GJQsqaUBKTNV-1" target="2dFmBHsL3zyiolPfMNF0-219" edge="1">
          <mxGeometry relative="1" as="geometry">
            <mxPoint x="1030" y="830" as="sourcePoint" />
          </mxGeometry>
        </mxCell>
        <mxCell id="2dFmBHsL3zyiolPfMNF0-218" style="edgeStyle=orthogonalEdgeStyle;rounded=0;orthogonalLoop=1;jettySize=auto;html=1;labelBackgroundColor=none;strokeColor=#E07A5F;fontColor=default;" parent="WIyWlLk6GJQsqaUBKTNV-1" source="2dFmBHsL3zyiolPfMNF0-219" target="2dFmBHsL3zyiolPfMNF0-197" edge="1">
          <mxGeometry relative="1" as="geometry">
            <Array as="points">
              <mxPoint x="940" y="755" />
              <mxPoint x="940" y="380" />
            </Array>
          </mxGeometry>
        </mxCell>
        <mxCell id="2dFmBHsL3zyiolPfMNF0-219" value="pembuatan charcter berhasil" style="rounded=1;whiteSpace=wrap;html=1;labelBackgroundColor=none;fillColor=#F2CC8F;strokeColor=#E07A5F;fontColor=#393C56;" parent="WIyWlLk6GJQsqaUBKTNV-1" vertex="1">
          <mxGeometry x="970" y="725" width="120" height="60" as="geometry" />
        </mxCell>
        <mxCell id="2dFmBHsL3zyiolPfMNF0-221" value="input character&lt;div&gt;name&lt;/div&gt;" style="shape=parallelogram;perimeter=parallelogramPerimeter;whiteSpace=wrap;html=1;fixedSize=1;labelBackgroundColor=none;fillColor=#F2CC8F;strokeColor=#E07A5F;fontColor=#393C56;" parent="WIyWlLk6GJQsqaUBKTNV-1" vertex="1">
          <mxGeometry x="1167.5" y="600" width="120" height="60" as="geometry" />
        </mxCell>
        <mxCell id="2dFmBHsL3zyiolPfMNF0-224" value="" style="edgeStyle=orthogonalEdgeStyle;rounded=0;orthogonalLoop=1;jettySize=auto;html=1;labelBackgroundColor=none;strokeColor=#E07A5F;fontColor=default;" parent="WIyWlLk6GJQsqaUBKTNV-1" target="2dFmBHsL3zyiolPfMNF0-230" edge="1">
          <mxGeometry relative="1" as="geometry">
            <mxPoint x="1227.4666666666667" y="830" as="sourcePoint" />
          </mxGeometry>
        </mxCell>
        <mxCell id="2dFmBHsL3zyiolPfMNF0-226" value="" style="edgeStyle=orthogonalEdgeStyle;rounded=0;orthogonalLoop=1;jettySize=auto;html=1;labelBackgroundColor=none;strokeColor=#E07A5F;fontColor=default;" parent="WIyWlLk6GJQsqaUBKTNV-1" source="2dFmBHsL3zyiolPfMNF0-230" target="2dFmBHsL3zyiolPfMNF0-232" edge="1">
          <mxGeometry relative="1" as="geometry" />
        </mxCell>
        <mxCell id="2dFmBHsL3zyiolPfMNF0-227" value="benar" style="edgeLabel;html=1;align=center;verticalAlign=middle;resizable=0;points=[];labelBackgroundColor=none;fontColor=#393C56;fontStyle=1" parent="2dFmBHsL3zyiolPfMNF0-226" vertex="1" connectable="0">
          <mxGeometry x="-0.0464" y="-1" relative="1" as="geometry">
            <mxPoint as="offset" />
          </mxGeometry>
        </mxCell>
        <mxCell id="2dFmBHsL3zyiolPfMNF0-228" style="edgeStyle=orthogonalEdgeStyle;rounded=0;orthogonalLoop=1;jettySize=auto;html=1;labelBackgroundColor=none;strokeColor=#E07A5F;fontColor=default;" parent="WIyWlLk6GJQsqaUBKTNV-1" source="2dFmBHsL3zyiolPfMNF0-230" target="2dFmBHsL3zyiolPfMNF0-197" edge="1">
          <mxGeometry relative="1" as="geometry">
            <mxPoint x="2220.0000000000005" y="680" as="targetPoint" />
            <Array as="points">
              <mxPoint x="1228" y="1020" />
              <mxPoint x="2221" y="1020" />
              <mxPoint x="2221" y="370" />
            </Array>
          </mxGeometry>
        </mxCell>
        <mxCell id="2dFmBHsL3zyiolPfMNF0-229" value="salah" style="edgeLabel;html=1;align=center;verticalAlign=middle;resizable=0;points=[];labelBackgroundColor=none;fontColor=#393C56;" parent="2dFmBHsL3zyiolPfMNF0-228" vertex="1" connectable="0">
          <mxGeometry x="-0.9095" y="-1" relative="1" as="geometry">
            <mxPoint as="offset" />
          </mxGeometry>
        </mxCell>
        <mxCell id="2dFmBHsL3zyiolPfMNF0-230" value="jika nama,element,rarity" style="rhombus;whiteSpace=wrap;html=1;labelBackgroundColor=none;fillColor=#F2CC8F;strokeColor=#E07A5F;fontColor=#393C56;" parent="WIyWlLk6GJQsqaUBKTNV-1" vertex="1">
          <mxGeometry x="1147.5" y="700" width="160" height="110" as="geometry" />
        </mxCell>
        <mxCell id="2dFmBHsL3zyiolPfMNF0-231" style="edgeStyle=orthogonalEdgeStyle;rounded=0;orthogonalLoop=1;jettySize=auto;html=1;entryX=1;entryY=0.75;entryDx=0;entryDy=0;labelBackgroundColor=none;strokeColor=#E07A5F;fontColor=default;" parent="WIyWlLk6GJQsqaUBKTNV-1" source="2dFmBHsL3zyiolPfMNF0-232" target="2dFmBHsL3zyiolPfMNF0-197" edge="1">
          <mxGeometry relative="1" as="geometry">
            <Array as="points">
              <mxPoint x="1870" y="915" />
              <mxPoint x="1870" y="395" />
            </Array>
          </mxGeometry>
        </mxCell>
        <mxCell id="2dFmBHsL3zyiolPfMNF0-232" value="character di hapus" style="rounded=1;whiteSpace=wrap;html=1;labelBackgroundColor=none;fillColor=#F2CC8F;strokeColor=#E07A5F;fontColor=#393C56;" parent="WIyWlLk6GJQsqaUBKTNV-1" vertex="1">
          <mxGeometry x="1407.5" y="885" width="120" height="60" as="geometry" />
        </mxCell>
        <mxCell id="2dFmBHsL3zyiolPfMNF0-233" value="" style="group;labelBackgroundColor=none;fontColor=#393C56;" parent="WIyWlLk6GJQsqaUBKTNV-1" vertex="1" connectable="0">
          <mxGeometry x="1280" y="1070" width="380" height="230" as="geometry" />
        </mxCell>
        <mxCell id="2dFmBHsL3zyiolPfMNF0-234" value="" style="edgeStyle=orthogonalEdgeStyle;rounded=0;orthogonalLoop=1;jettySize=auto;html=1;labelBackgroundColor=none;strokeColor=#E07A5F;fontColor=default;" parent="2dFmBHsL3zyiolPfMNF0-233" source="2dFmBHsL3zyiolPfMNF0-235" edge="1">
          <mxGeometry relative="1" as="geometry">
            <mxPoint x="59.999999999999545" y="80" as="targetPoint" />
          </mxGeometry>
        </mxCell>
        <mxCell id="2dFmBHsL3zyiolPfMNF0-235" value="input nama char, element, rarity" style="shape=parallelogram;perimeter=parallelogramPerimeter;whiteSpace=wrap;html=1;fixedSize=1;labelBackgroundColor=none;fillColor=#F2CC8F;strokeColor=#E07A5F;fontColor=#393C56;" parent="2dFmBHsL3zyiolPfMNF0-233" vertex="1">
          <mxGeometry width="120" height="60" as="geometry" />
        </mxCell>
        <mxCell id="2dFmBHsL3zyiolPfMNF0-240" value="update character" style="rounded=1;whiteSpace=wrap;html=1;labelBackgroundColor=none;fillColor=#F2CC8F;strokeColor=#E07A5F;fontColor=#393C56;" parent="2dFmBHsL3zyiolPfMNF0-233" vertex="1">
          <mxGeometry y="85" width="120" height="60" as="geometry" />
        </mxCell>
        <mxCell id="2dFmBHsL3zyiolPfMNF0-239" style="edgeStyle=orthogonalEdgeStyle;rounded=0;orthogonalLoop=1;jettySize=auto;html=1;entryX=0.5;entryY=0;entryDx=0;entryDy=0;labelBackgroundColor=none;strokeColor=#E07A5F;fontColor=default;" parent="WIyWlLk6GJQsqaUBKTNV-1" source="2dFmBHsL3zyiolPfMNF0-240" target="2dFmBHsL3zyiolPfMNF0-243" edge="1">
          <mxGeometry relative="1" as="geometry" />
        </mxCell>
        <mxCell id="2dFmBHsL3zyiolPfMNF0-242" value="" style="edgeStyle=orthogonalEdgeStyle;rounded=0;orthogonalLoop=1;jettySize=auto;html=1;labelBackgroundColor=none;strokeColor=#E07A5F;fontColor=default;" parent="WIyWlLk6GJQsqaUBKTNV-1" source="2dFmBHsL3zyiolPfMNF0-243" edge="1">
          <mxGeometry relative="1" as="geometry">
            <mxPoint x="1159.9999999999995" y="1140" as="targetPoint" />
          </mxGeometry>
        </mxCell>
        <mxCell id="2dFmBHsL3zyiolPfMNF0-243" value="input nama char, element, rarity&amp;nbsp;&lt;div&gt;baru&lt;/div&gt;" style="shape=parallelogram;perimeter=parallelogramPerimeter;whiteSpace=wrap;html=1;fixedSize=1;labelBackgroundColor=none;fillColor=#F2CC8F;strokeColor=#E07A5F;fontColor=#393C56;" parent="WIyWlLk6GJQsqaUBKTNV-1" vertex="1">
          <mxGeometry x="1100" y="1060" width="120" height="60" as="geometry" />
        </mxCell>
        <mxCell id="2dFmBHsL3zyiolPfMNF0-248" style="edgeStyle=orthogonalEdgeStyle;rounded=0;orthogonalLoop=1;jettySize=auto;html=1;labelBackgroundColor=none;strokeColor=#E07A5F;fontColor=default;" parent="WIyWlLk6GJQsqaUBKTNV-1" source="2dFmBHsL3zyiolPfMNF0-249" target="2dFmBHsL3zyiolPfMNF0-197" edge="1">
          <mxGeometry relative="1" as="geometry">
            <Array as="points">
              <mxPoint x="880" y="1190" />
              <mxPoint x="880" y="380" />
            </Array>
          </mxGeometry>
        </mxCell>
        <mxCell id="2dFmBHsL3zyiolPfMNF0-249" value="update character&lt;div&gt;berhasil&lt;/div&gt;" style="rounded=1;whiteSpace=wrap;html=1;labelBackgroundColor=none;fillColor=#F2CC8F;strokeColor=#E07A5F;fontColor=#393C56;" parent="WIyWlLk6GJQsqaUBKTNV-1" vertex="1">
          <mxGeometry x="1100" y="1140" width="120" height="60" as="geometry" />
        </mxCell>
        <mxCell id="2dFmBHsL3zyiolPfMNF0-259" style="edgeStyle=orthogonalEdgeStyle;rounded=0;orthogonalLoop=1;jettySize=auto;html=1;entryX=1;entryY=0.5;entryDx=0;entryDy=0;labelBackgroundColor=none;strokeColor=#E07A5F;fontColor=default;" parent="WIyWlLk6GJQsqaUBKTNV-1" source="2dFmBHsL3zyiolPfMNF0-257" target="2dFmBHsL3zyiolPfMNF0-197" edge="1">
          <mxGeometry relative="1" as="geometry">
            <Array as="points">
              <mxPoint x="1770" y="680" />
              <mxPoint x="1770" y="380" />
            </Array>
          </mxGeometry>
        </mxCell>
        <mxCell id="2dFmBHsL3zyiolPfMNF0-257" value="menampilkan character yang telah di buat" style="rounded=1;whiteSpace=wrap;html=1;labelBackgroundColor=none;fillColor=#F2CC8F;strokeColor=#E07A5F;fontColor=#393C56;" parent="WIyWlLk6GJQsqaUBKTNV-1" vertex="1">
          <mxGeometry x="1390" y="650" width="120" height="60" as="geometry" />
        </mxCell>
        <mxCell id="2dFmBHsL3zyiolPfMNF0-258" value="" style="edgeStyle=orthogonalEdgeStyle;rounded=0;orthogonalLoop=1;jettySize=auto;html=1;labelBackgroundColor=none;strokeColor=#E07A5F;fontColor=default;" parent="WIyWlLk6GJQsqaUBKTNV-1" source="2dFmBHsL3zyiolPfMNF0-211" target="2dFmBHsL3zyiolPfMNF0-257" edge="1">
          <mxGeometry relative="1" as="geometry" />
        </mxCell>
        <mxCell id="6tOE_kxv_wdbd2dH7QsG-11" style="edgeStyle=orthogonalEdgeStyle;rounded=0;orthogonalLoop=1;jettySize=auto;html=1;strokeColor=#E07A5F;fontColor=#393C56;fillColor=#F2CC8F;" edge="1" parent="WIyWlLk6GJQsqaUBKTNV-1" source="6tOE_kxv_wdbd2dH7QsG-7" target="2dFmBHsL3zyiolPfMNF0-219">
          <mxGeometry relative="1" as="geometry" />
        </mxCell>
        <mxCell id="6tOE_kxv_wdbd2dH7QsG-7" value="input nama char, element, rarity&amp;nbsp;" style="shape=parallelogram;perimeter=parallelogramPerimeter;whiteSpace=wrap;html=1;fixedSize=1;labelBackgroundColor=none;fillColor=#F2CC8F;strokeColor=#E07A5F;fontColor=#393C56;" vertex="1" parent="WIyWlLk6GJQsqaUBKTNV-1">
          <mxGeometry x="970" y="600" width="120" height="60" as="geometry" />
        </mxCell>
        <mxCell id="6tOE_kxv_wdbd2dH7QsG-10" style="edgeStyle=orthogonalEdgeStyle;rounded=0;orthogonalLoop=1;jettySize=auto;html=1;strokeColor=#E07A5F;fontColor=#393C56;fillColor=#F2CC8F;" edge="1" parent="WIyWlLk6GJQsqaUBKTNV-1" source="6tOE_kxv_wdbd2dH7QsG-8" target="2dFmBHsL3zyiolPfMNF0-230">
          <mxGeometry relative="1" as="geometry" />
        </mxCell>
        <mxCell id="6tOE_kxv_wdbd2dH7QsG-8" value="input nama char, element, rarity&amp;nbsp;" style="shape=parallelogram;perimeter=parallelogramPerimeter;whiteSpace=wrap;html=1;fixedSize=1;labelBackgroundColor=none;fillColor=#F2CC8F;strokeColor=#E07A5F;fontColor=#393C56;" vertex="1" parent="WIyWlLk6GJQsqaUBKTNV-1">
          <mxGeometry x="1167.5" y="600" width="120" height="60" as="geometry" />
        </mxCell>
        <mxCell id="6tOE_kxv_wdbd2dH7QsG-12" value="P2" style="shape=offPageConnector;whiteSpace=wrap;html=1;labelBackgroundColor=none;fillColor=#F2CC8F;strokeColor=#E07A5F;fontColor=#393C56;" vertex="1" parent="WIyWlLk6GJQsqaUBKTNV-1">
          <mxGeometry x="-100" y="1040" width="80" height="80" as="geometry" />
        </mxCell>
        <mxCell id="6tOE_kxv_wdbd2dH7QsG-13" value="P2" style="shape=offPageConnector;whiteSpace=wrap;html=1;labelBackgroundColor=none;fillColor=#F2CC8F;strokeColor=#E07A5F;fontColor=#393C56;" vertex="1" parent="WIyWlLk6GJQsqaUBKTNV-1">
          <mxGeometry x="1630" y="210" width="80" height="80" as="geometry" />
        </mxCell>
      </root>
    </mxGraphModel>
  </diagram>
</mxfile>
